# Blender 3.5.1
# www.blender.org
mtllib doors_around.mtl
o Plane.001
v -0.197369 2.711663 13.511911
v -0.197369 -0.009296 13.511911
v -0.197369 2.711663 11.973091
v -0.197369 -0.009296 11.973091
v -0.197369 2.625454 12.059300
v -0.197369 2.625454 13.425702
v -0.197369 -0.009296 13.425702
v -0.197369 -0.009296 12.059300
v -0.081345 2.711663 13.511911
v -0.081345 -0.009296 13.511911
v -0.081345 2.711663 11.973091
v -0.081345 -0.009296 11.973091
v -0.081345 2.625454 12.059300
v -0.081345 2.625454 13.425702
v -0.081345 -0.009296 13.425702
v -0.081345 -0.009296 12.059300
vn 1.0000 -0.0000 -0.0000
vn -1.0000 -0.0000 -0.0000
vn -0.0000 -0.0000 -1.0000
vn -0.0000 -0.0000 1.0000
vn -0.0000 -1.0000 -0.0000
vn -0.0000 1.0000 -0.0000
vt 0.258309 0.007611
vt 0.258309 0.258309
vt 0.007611 0.007611
vt 0.007611 0.258309
vt 0.021656 0.015554
vt 0.244265 0.015554
vt 0.244265 0.250366
vt 0.021656 0.250366
vt 0.258309 0.007611
vt 0.258309 0.258309
vt 0.007611 0.007611
vt 0.007611 0.258309
vt 0.021656 0.015554
vt 0.244265 0.015554
vt 0.244265 0.250366
vt 0.021656 0.250366
s 0
f 14/14/1 13/13/1 11/11/1 9/9/1
f 6/6/2 1/1/2 3/3/2 5/5/2
f 7/7/2 2/2/2 1/1/2 6/6/2
f 15/15/1 14/14/1 9/9/1 10/10/1
f 5/5/2 3/3/2 4/4/2 8/8/2
f 13/13/1 16/16/1 12/12/1 11/11/1
f 4/4/3 3/3/3 11/11/3 12/12/3
f 1/1/4 2/2/4 10/10/4 9/9/4
f 5/5/4 8/8/4 16/16/4 13/13/4
f 7/7/3 6/6/3 14/14/3 15/15/3
f 2/2/5 7/7/5 15/15/5 10/10/5
f 3/3/6 1/1/6 9/9/6 11/11/6
f 8/8/5 4/4/5 12/12/5 16/16/5
f 6/6/5 5/5/5 13/13/5 14/14/5
