# Blender 3.5.1
# www.blender.org
mtllib toilet_paper.mtl
o Plane
v -0.003096 1.119548 6.103920
v -0.003096 0.899511 6.103920
v -0.003096 1.119548 5.703846
v -0.003096 0.899511 5.703846
v 0.005544 1.119548 6.103920
v 0.014054 1.114868 6.095409
v 0.005544 0.899511 6.103920
v 0.014054 0.904191 6.095409
v 0.014054 1.114868 5.712356
v 0.005544 1.119548 5.703846
v 0.005544 0.899511 5.703846
v 0.014054 0.904191 5.712356
vn -1.0000 -0.0000 -0.0000
vn -0.0000 -0.0000 1.0000
vn -0.0000 -1.0000 -0.0000
vn -0.0000 -0.0000 -1.0000
vn 1.0000 -0.0000 -0.0000
vn 0.4819 0.8762 -0.0000
vn 0.7071 -0.0000 0.7071
vn 0.4819 -0.8762 -0.0000
vn 0.7071 -0.0000 -0.7071
vn -0.0000 1.0000 -0.0000
vt 0.007611 0.670880
vt 0.979417 0.896937
vt 0.855859 0.406479
vt 0.007611 0.746780
vt 0.979417 0.972838
vt 0.987903 0.231055
vt 0.083512 0.670880
vt 0.979518 0.441298
vt 0.855859 0.330579
vt 0.083512 0.746780
vt 0.987903 0.306955
vt 0.979518 0.517199
vt 0.977778 0.896937
vt 0.615083 0.765471
vt 0.854220 0.406479
vt 0.852605 0.404865
vt 0.613469 0.763856
vt 0.977778 0.972838
vt 0.986264 0.231055
vt 0.539182 0.765471
vt 0.540797 0.763856
vt 0.852605 0.332193
vt 0.613469 0.691185
vt 0.981157 0.441298
vt 0.615083 0.689570
vt 0.854220 0.330579
vt 0.986264 0.306955
vt 0.981157 0.517199
vt 0.539182 0.689570
vt 0.540797 0.691185
s 1
f 1/1/1 3/7/1 4/10/1 2/4/1
f 1/2/2 2/5/2 7/18/2 5/13/2
f 2/6/3 4/11/3 11/27/3 7/19/3
f 4/12/4 3/8/4 10/24/4 11/28/4
f 6/17/5 8/21/5 12/30/5 9/23/5
f 10/26/6 5/15/6 6/16/6 9/22/6
f 5/14/7 7/20/7 8/21/7 6/17/7
f 7/20/8 11/29/8 12/30/8 8/21/8
f 11/29/9 10/25/9 9/23/9 12/30/9
f 3/9/10 1/3/10 5/15/10 10/26/10
o Circle.001
v 0.012327 1.009529 6.018325
v 0.012327 1.023833 6.024251
v 0.012327 1.029758 6.038554
v 0.012327 1.023833 6.052858
v 0.012327 1.009529 6.058783
v 0.012327 0.995226 6.052858
v 0.012327 0.989301 6.038554
v 0.012327 0.995226 6.024251
v 0.113133 1.009529 6.058783
v 0.107209 1.023833 6.052858
v 0.092905 1.029758 6.038554
v 0.078601 1.023833 6.024251
v 0.072676 1.009529 6.018325
v 0.078601 0.995226 6.024251
v 0.092905 0.989301 6.038554
v 0.107209 0.995226 6.052858
v 0.012327 1.009529 5.789439
v 0.012327 1.023833 5.783514
v 0.012327 1.029758 5.769210
v 0.012327 1.023833 5.754906
v 0.012327 1.009529 5.748981
v 0.012327 0.995226 5.754906
v 0.012327 0.989301 5.769210
v 0.012327 0.995226 5.783514
v 0.113134 1.009529 5.748981
v 0.107209 1.023833 5.754906
v 0.092905 1.029758 5.769210
v 0.078601 1.023833 5.783514
v 0.072676 1.009529 5.789439
v 0.078601 0.995226 5.783514
v 0.092905 0.989301 5.769210
v 0.107209 0.995226 5.754906
vn 0.4975 0.7106 0.4975
vn 0.4975 0.7106 -0.4975
vn 0.0974 0.9905 -0.0974
vn 0.0974 0.9905 0.0974
vn 0.0974 -0.9905 0.0974
vn 0.0974 -0.9905 -0.0974
vn 0.4975 -0.7106 -0.4975
vn 0.4975 -0.7106 0.4975
vn -0.7071 -0.0000 -0.7071
vn -0.7071 -0.0000 0.7071
vn -0.3377 -0.8786 0.3377
vn -0.3377 -0.8786 -0.3377
vn -0.3377 0.8786 0.3377
vn -0.3377 0.8786 -0.3377
vn 0.7071 -0.0000 -0.7071
vn 0.7071 -0.0000 0.7071
vn -0.0000 1.0000 -0.0000
vn -0.0000 0.7071 0.7071
vn -0.0000 -0.0000 1.0000
vn -0.0000 -0.7071 0.7071
vn -0.0000 -1.0000 -0.0000
vn -0.0000 -0.7071 -0.7071
vn -0.0000 0.7071 -0.7071
vn -0.0000 -0.0000 -1.0000
vt 0.640715 0.889010
vt 0.099558 0.296624
vt 0.653213 0.889010
vt 0.099953 0.285078
vt 0.099558 0.273531
vt 0.791864 0.917706
vt 0.783027 0.917706
vt 0.770529 0.917706
vt 0.008006 0.514046
vt 0.007611 0.502500
vt 0.008006 0.490953
vt 0.631878 0.889010
vt 0.783027 0.836332
vt 0.697423 0.356309
vt 0.175888 0.273531
vt 0.791864 0.841115
vt 0.684925 0.361092
vt 0.164776 0.285078
vt 0.748562 0.007611
vt 0.152874 0.296624
vt 0.653213 0.942509
vt 0.739725 0.012394
vt 0.640715 0.937726
vt 0.727227 0.007611
vt 0.061322 0.490953
vt 0.631878 0.942509
vt 0.072434 0.502500
vt 0.706260 0.361092
vt 0.770529 0.841115
vt 0.084336 0.514046
vt 0.249519 0.938120
vt 0.099558 0.490954
vt 0.258356 0.938120
vt 0.099953 0.502500
vt 0.099558 0.514046
vt 0.343808 0.909120
vt 0.356306 0.909120
vt 0.365143 0.909120
vt 0.008006 0.273531
vt 0.007611 0.285078
vt 0.008006 0.296624
vt 0.237021 0.938120
vt 0.356306 0.827746
vt 0.697423 0.606389
vt 0.175888 0.514046
vt 0.343808 0.832529
vt 0.684925 0.601607
vt 0.164776 0.502500
vt 0.748562 0.201940
vt 0.152874 0.490954
vt 0.258356 0.884622
vt 0.739725 0.197158
vt 0.249519 0.889404
vt 0.727227 0.201940
vt 0.061322 0.296624
vt 0.237021 0.884622
vt 0.072434 0.285078
vt 0.706260 0.601607
vt 0.365143 0.832529
vt 0.084336 0.273531
s 1
f 22/45/11 38/75/12 39/78/13 23/48/14
f 27/57/15 43/87/16 44/90/17 28/60/18
f 25/52/19 41/82/20 42/84/21 26/54/22
f 23/48/14 39/78/13 40/80/23 24/50/24
f 28/58/18 44/88/17 37/74/25 21/44/26
f 26/55/22 42/85/21 43/87/16 27/57/15
f 24/49/24 40/79/23 41/82/20 25/52/19
f 15/34/27 16/35/28 22/45/11 23/48/14
f 17/37/29 18/38/30 28/59/18 21/43/26
f 19/40/31 20/41/32 26/55/22 27/57/15
f 14/32/33 15/34/27 23/48/14 24/50/24
f 16/36/28 17/37/29 21/43/26 22/46/11
f 18/39/30 19/40/31 27/57/15 28/60/18
f 20/42/32 13/31/34 25/53/19 26/56/22
f 13/31/34 14/33/33 24/51/24 25/53/19
f 31/64/27 39/78/13 38/75/12 32/65/33
f 33/67/34 37/73/25 44/89/17 34/68/32
f 35/70/31 43/87/16 42/85/21 36/71/30
f 30/62/28 40/80/23 39/78/13 31/64/27
f 32/66/33 38/76/12 37/73/25 33/67/34
f 34/69/32 44/90/17 43/87/16 35/70/31
f 36/72/30 42/86/21 41/83/20 29/61/29
f 29/61/29 41/83/20 40/81/23 30/63/28
f 21/44/26 37/74/25 38/77/12 22/47/11
o Circle.004
v 0.092905 1.032568 5.903883
v 0.084088 1.030814 5.903883
v 0.076614 1.025820 5.903883
v 0.071620 1.018346 5.903883
v 0.069866 1.009529 5.903883
v 0.071620 1.000713 5.903883
v 0.076614 0.993238 5.903883
v 0.084088 0.988244 5.903883
v 0.092905 0.986491 5.903883
v 0.101721 0.988244 5.903883
v 0.109196 0.993238 5.903883
v 0.114190 1.000713 5.903883
v 0.115944 1.009529 5.903883
v 0.114190 1.018346 5.903883
v 0.109196 1.025820 5.903883
v 0.101721 1.030814 5.903883
v 0.092905 1.032568 6.006350
v 0.084088 1.030814 6.006350
v 0.076614 1.025820 6.006350
v 0.071620 1.018346 6.006350
v 0.069866 1.009529 6.006350
v 0.071620 1.000713 6.006350
v 0.076614 0.993238 6.006350
v 0.084088 0.988244 6.006350
v 0.092905 0.986491 6.006350
v 0.101721 0.988244 6.006350
v 0.109196 0.993238 6.006350
v 0.114190 1.000713 6.006350
v 0.115944 1.009529 6.006350
v 0.114190 1.018346 6.006350
v 0.109196 1.025820 6.006350
v 0.101721 1.030814 6.006350
v 0.092905 1.034448 6.006350
v 0.083369 1.032552 6.006350
v 0.075284 1.027150 6.006350
v 0.069883 1.019065 6.006350
v 0.067986 1.009529 6.006350
v 0.069883 0.999993 6.006350
v 0.075284 0.991909 6.006350
v 0.083369 0.986507 6.006350
v 0.092905 0.984610 6.006350
v 0.102441 0.986507 6.006350
v 0.110525 0.991909 6.006350
v 0.115927 0.999993 6.006350
v 0.117824 1.009529 6.006350
v 0.115927 1.019065 6.006350
v 0.110525 1.027150 6.006350
v 0.102441 1.032552 6.006350
v 0.092905 1.084948 6.006350
v 0.064043 1.079207 6.006350
v 0.039576 1.062858 6.006350
v 0.023227 1.038391 6.006350
v 0.017486 1.009529 6.006350
v 0.023227 0.980668 6.006350
v 0.039576 0.956200 6.006350
v 0.064043 0.939852 6.006350
v 0.092905 0.934111 6.006350
v 0.121766 0.939852 6.006350
v 0.146234 0.956200 6.006350
v 0.162583 0.980668 6.006350
v 0.168324 1.009529 6.006350
v 0.162583 1.038391 6.006350
v 0.146234 1.062858 6.006350
v 0.121766 1.079207 6.006350
v 0.168324 0.898364 6.006350
v 0.168324 0.987296 6.006350
v 0.166758 0.964123 6.006350
v 0.168324 0.942830 6.006350
v 0.169263 0.919344 6.006350
v 0.169107 0.875918 6.006350
v 0.168324 0.851650 6.006350
v 0.092905 1.032568 5.801415
v 0.084088 1.030814 5.801415
v 0.076614 1.025820 5.801415
v 0.071620 1.018346 5.801415
v 0.069866 1.009529 5.801415
v 0.071620 1.000713 5.801415
v 0.076614 0.993238 5.801415
v 0.084088 0.988244 5.801415
v 0.092905 0.986491 5.801415
v 0.101721 0.988244 5.801415
v 0.109196 0.993238 5.801415
v 0.114190 1.000713 5.801415
v 0.115944 1.009529 5.801415
v 0.114190 1.018346 5.801415
v 0.109196 1.025820 5.801415
v 0.101721 1.030814 5.801415
v 0.092905 1.034448 5.801415
v 0.083369 1.032552 5.801415
v 0.075284 1.027150 5.801415
v 0.069883 1.019065 5.801415
v 0.067986 1.009529 5.801415
v 0.069883 0.999993 5.801415
v 0.075284 0.991909 5.801415
v 0.083369 0.986507 5.801415
v 0.092905 0.984610 5.801415
v 0.102441 0.986507 5.801415
v 0.110525 0.991909 5.801415
v 0.115927 0.999993 5.801415
v 0.117824 1.009529 5.801415
v 0.115927 1.019065 5.801415
v 0.110525 1.027150 5.801415
v 0.102441 1.032552 5.801415
v 0.092905 1.084948 5.801415
v 0.064043 1.079207 5.801415
v 0.039576 1.062858 5.801415
v 0.023227 1.038391 5.801415
v 0.017486 1.009529 5.801415
v 0.023227 0.980668 5.801415
v 0.039576 0.956200 5.801415
v 0.064043 0.939852 5.801415
v 0.092905 0.934111 5.801415
v 0.121766 0.939852 5.801415
v 0.146234 0.956200 5.801415
v 0.162583 0.980668 5.801415
v 0.168324 1.009529 5.801415
v 0.162583 1.038391 5.801415
v 0.146234 1.062858 5.801415
v 0.121766 1.079207 5.801415
v 0.168324 0.898364 5.801415
v 0.168324 0.987296 5.801415
v 0.166758 0.964123 5.801415
v 0.168324 0.942830 5.801415
v 0.169263 0.919344 5.801415
v 0.169107 0.875918 5.801415
v 0.168324 0.851650 5.801415
v 0.167127 1.009529 6.006350
v 0.167127 0.898364 6.006350
v 0.168067 0.919344 6.006350
v 0.167127 0.987296 6.006350
v 0.165561 0.964123 6.006350
v 0.167127 0.942830 6.006350
v 0.167910 0.875918 6.006350
v 0.167127 0.851650 6.006350
v 0.167127 1.009529 5.801415
v 0.167127 0.898364 5.801415
v 0.168067 0.919344 5.801415
v 0.167127 0.987296 5.801415
v 0.165561 0.964123 5.801415
v 0.167127 0.942830 5.801415
v 0.167910 0.875918 5.801415
v 0.167127 0.851650 5.801415
vn -0.9239 -0.3827 -0.0000
vn -1.0000 -0.0000 -0.0000
vn 0.7071 0.7071 -0.0000
vn 0.9239 0.3827 -0.0000
vn -0.7071 -0.7071 -0.0000
vn 0.3827 0.9239 -0.0000
vn -0.3827 -0.9239 -0.0000
vn -0.0000 1.0000 -0.0000
vn 0.3827 -0.9239 -0.0000
vn -0.0000 -1.0000 -0.0000
vn -0.3827 0.9239 -0.0000
vn 0.7071 -0.7071 -0.0000
vn -0.7071 0.7071 -0.0000
vn 0.9239 -0.3827 -0.0000
vn -0.9239 0.3827 -0.0000
vn 1.0000 -0.0000 -0.0000
vn -0.0000 -0.0000 1.0000
vn 0.9808 -0.1951 -0.0000
vn 0.9808 0.1951 -0.0000
vn -0.0000 -0.0000 -1.0000
vn -0.9994 0.0337 -0.0000
vn -0.9984 -0.0567 -0.0000
vn -1.0000 0.0024 -0.0000
vn -1.0000 0.0049 -0.0000
vn -1.0000 -0.0013 -0.0000
vn -1.0000 -0.0030 -0.0000
vn -0.9995 0.0322 -0.0000
vn 0.9994 -0.0337 -0.0000
vn 1.0000 0.0030 -0.0000
vn 0.9984 0.0567 -0.0000
vn 1.0000 -0.0024 -0.0000
vn 1.0000 -0.0049 -0.0000
vn 1.0000 0.0013 -0.0000
vn 0.9995 -0.0322 -0.0000
vt 0.463882 0.885999
vt 0.467562 0.885999
vt 0.471545 0.885999
vt 0.475225 0.885999
vt 0.736362 0.861312
vt 0.739538 0.861312
vt 0.743393 0.861312
vt 0.747338 0.861312
vt 0.750774 0.861312
vt 0.431684 0.885999
vt 0.434501 0.885999
vt 0.438181 0.885999
vt 0.442164 0.885999
vt 0.445844 0.885999
vt 0.909598 0.667013
vt 0.912775 0.667013
vt 0.916629 0.667013
vt 0.920574 0.667013
vt 0.924010 0.667013
vt 0.461066 0.885999
vt 0.463882 0.840597
vt 0.326894 0.789761
vt 0.467562 0.840597
vt 0.323214 0.788237
vt 0.471545 0.840597
vt 0.320397 0.785420
vt 0.475225 0.840597
vt 0.736362 0.815910
vt 0.318873 0.781740
vt 0.739538 0.815910
vt 0.318873 0.777757
vt 0.743393 0.815910
vt 0.320397 0.774077
vt 0.747338 0.815910
vt 0.323214 0.771261
vt 0.750774 0.815910
vt 0.431684 0.840597
vt 0.326894 0.769737
vt 0.434501 0.840597
vt 0.330877 0.769737
vt 0.438181 0.840597
vt 0.334556 0.771261
vt 0.442164 0.840597
vt 0.337373 0.774077
vt 0.445844 0.840597
vt 0.909598 0.621611
vt 0.338897 0.777757
vt 0.912775 0.621611
vt 0.338897 0.781740
vt 0.916629 0.621611
vt 0.337373 0.785420
vt 0.920574 0.621611
vt 0.334556 0.788237
vt 0.924010 0.621611
vt 0.461066 0.840597
vt 0.330877 0.789761
vt 0.326731 0.790578
vt 0.322751 0.788929
vt 0.319705 0.785883
vt 0.318056 0.781903
vt 0.318056 0.777595
vt 0.319705 0.773615
vt 0.322751 0.770568
vt 0.326731 0.768920
vt 0.331039 0.768920
vt 0.335019 0.770568
vt 0.338066 0.773615
vt 0.339714 0.777595
vt 0.339714 0.781903
vt 0.338066 0.785883
vt 0.335019 0.788929
vt 0.331039 0.790578
vt 0.322366 0.812524
vt 0.468815 0.734571
vt 0.310320 0.807534
vt 0.456769 0.734571
vt 0.301100 0.798314
vt 0.443731 0.734571
vt 0.296110 0.786268
vt 0.431684 0.734571
vt 0.810250 0.621611
vt 0.296110 0.773229
vt 0.799852 0.621611
vt 0.301100 0.761183
vt 0.787235 0.621611
vt 0.310320 0.751964
vt 0.774320 0.621611
vt 0.322366 0.746974
vt 0.816880 0.730307
vt 0.763073 0.621611
vt 0.335404 0.746974
vt 0.807660 0.730307
vt 0.347451 0.751964
vt 0.795614 0.730307
vt 0.356670 0.761183
vt 0.782575 0.730307
vt 0.361660 0.773229
vt 0.770529 0.730307
vt 0.296110 0.480118
vt 0.361660 0.786268
vt 0.980951 0.602372
vt 0.296110 0.490517
vt 0.273578 0.884622
vt 0.356670 0.798314
vt 0.296110 0.503134
vt 0.347451 0.807534
vt 0.296110 0.516049
vt 0.335404 0.812524
vt 0.296110 0.527296
vt 0.478035 0.734571
vt 0.980438 0.553118
vt 0.296110 0.446192
vt 0.980849 0.592521
vt 0.296110 0.481652
vt 0.980048 0.582261
vt 0.296110 0.472715
vt 0.980643 0.572820
vt 0.296110 0.463922
vt 0.980951 0.562410
vt 0.296110 0.454376
vt 0.980681 0.543170
vt 0.296110 0.437091
vt 0.910297 0.866877
vt 0.980223 0.532421
vt 0.296110 0.427566
vt 0.463882 0.931400
vt 0.186598 0.785293
vt 0.467562 0.931400
vt 0.182918 0.783769
vt 0.471545 0.931400
vt 0.178935 0.783769
vt 0.475225 0.931400
vt 0.736362 0.906714
vt 0.175256 0.785293
vt 0.739538 0.906714
vt 0.172439 0.788109
vt 0.743393 0.906714
vt 0.170915 0.791789
vt 0.747338 0.906714
vt 0.170915 0.795772
vt 0.750774 0.906714
vt 0.431684 0.931400
vt 0.172439 0.799452
vt 0.434501 0.931400
vt 0.175256 0.802268
vt 0.438181 0.931400
vt 0.178935 0.803793
vt 0.442164 0.931400
vt 0.182918 0.803793
vt 0.445844 0.931400
vt 0.909598 0.712415
vt 0.186598 0.802268
vt 0.912775 0.712415
vt 0.189415 0.799452
vt 0.916629 0.712415
vt 0.190939 0.795772
vt 0.920574 0.712415
vt 0.190939 0.791789
vt 0.924010 0.712415
vt 0.461066 0.931400
vt 0.189415 0.788109
vt 0.187061 0.784600
vt 0.183081 0.782952
vt 0.178773 0.782952
vt 0.174793 0.784600
vt 0.171746 0.787646
vt 0.170098 0.791627
vt 0.170098 0.795935
vt 0.171746 0.799915
vt 0.174793 0.802961
vt 0.178773 0.804610
vt 0.183081 0.804610
vt 0.187061 0.802961
vt 0.190107 0.799915
vt 0.191756 0.795935
vt 0.191756 0.791627
vt 0.190107 0.787646
vt 0.199492 0.765995
vt 0.468815 0.825375
vt 0.187446 0.761006
vt 0.456769 0.825375
vt 0.443731 0.825375
vt 0.174408 0.761006
vt 0.431684 0.825375
vt 0.810250 0.712415
vt 0.162361 0.765995
vt 0.799852 0.712415
vt 0.153142 0.775215
vt 0.787235 0.712415
vt 0.148152 0.787261
vt 0.774320 0.712415
vt 0.148152 0.800300
vt 0.816880 0.821110
vt 0.763073 0.712415
vt 0.153142 0.812346
vt 0.807660 0.821110
vt 0.162361 0.821566
vt 0.795614 0.821110
vt 0.174408 0.826556
vt 0.782575 0.821110
vt 0.187446 0.826556
vt 0.770529 0.821110
vt 0.386914 0.480118
vt 0.199492 0.821566
vt 0.208712 0.812346
vt 0.987697 0.322183
vt 0.386914 0.490517
vt 0.273578 0.975425
vt 0.386914 0.503134
vt 0.213702 0.800300
vt 0.386914 0.516049
vt 0.213702 0.787261
vt 0.386914 0.527296
vt 0.478035 0.825375
vt 0.208712 0.775215
vt 0.987184 0.371436
vt 0.386914 0.446192
vt 0.987594 0.332034
vt 0.386914 0.481652
vt 0.986794 0.342294
vt 0.386914 0.472715
vt 0.987389 0.351735
vt 0.386914 0.463922
vt 0.987697 0.362145
vt 0.386914 0.454376
vt 0.987427 0.381385
vt 0.386914 0.437091
vt 0.910297 0.957680
vt 0.986968 0.392133
vt 0.386914 0.427566
vt 0.784433 0.356309
vt 0.980421 0.602377
vt 0.274019 0.884622
vt 0.979908 0.553124
vt 0.740109 0.356309
vt 0.748292 0.356309
vt 0.980421 0.562415
vt 0.980319 0.592526
vt 0.775568 0.356309
vt 0.979518 0.582267
vt 0.766631 0.356309
vt 0.757838 0.356309
vt 0.980113 0.572825
vt 0.980151 0.543175
vt 0.731008 0.356309
vt 0.910738 0.866877
vt 0.979693 0.532427
vt 0.721483 0.356309
vt 0.784433 0.447112
vt 0.987167 0.322178
vt 0.274019 0.975425
vt 0.740109 0.447112
vt 0.986654 0.371431
vt 0.748292 0.447112
vt 0.987167 0.362140
vt 0.987064 0.332028
vt 0.775568 0.447112
vt 0.986264 0.342288
vt 0.766631 0.447112
vt 0.986859 0.351730
vt 0.757838 0.447112
vt 0.731008 0.447112
vt 0.986897 0.381379
vt 0.910738 0.957680
vt 0.721483 0.447112
vt 0.986438 0.392128
s 1
f 58/107/35 57/106/36 73/138/36 74/140/35
f 51/98/37 50/97/38 66/122/38 67/124/37
f 59/108/39 58/107/35 74/140/35 75/142/39
f 52/99/40 51/98/37 67/124/37 68/126/40
f 60/109/41 59/108/39 75/142/39 76/144/41
f 53/101/42 52/100/40 68/127/40 69/129/42
f 46/92/43 45/91/44 61/111/44 62/113/43
f 45/91/44 60/110/41 76/145/41 61/111/44
f 54/102/45 53/101/42 69/129/42 70/131/45
f 47/93/46 46/92/43 62/113/43 63/115/46
f 55/103/47 54/102/45 70/131/45 71/133/47
f 48/94/48 47/93/46 63/115/46 64/117/48
f 56/104/49 55/103/47 71/133/47 72/135/49
f 49/96/50 48/95/48 64/118/48 65/120/50
f 57/106/36 56/105/49 72/136/49 73/138/36
f 50/97/38 49/96/50 65/120/50 66/122/38
f 65/121/51 64/119/51 80/150/51 81/151/51
f 73/139/51 72/137/51 88/158/51 89/159/51
f 66/123/51 65/121/51 81/151/51 82/152/51
f 74/141/51 73/139/51 89/159/51 90/160/51
f 67/125/51 66/123/51 82/152/51 83/153/51
f 75/143/51 74/141/51 90/160/51 91/161/51
f 68/128/51 67/125/51 83/153/51 84/154/51
f 76/146/51 75/143/51 91/161/51 92/162/51
f 69/130/51 68/128/51 84/154/51 85/155/51
f 62/114/51 61/112/51 77/147/51 78/148/51
f 61/112/51 76/146/51 92/162/51 77/147/51
f 70/132/51 69/130/51 85/155/51 86/156/51
f 63/116/51 62/114/51 78/148/51 79/149/51
f 71/134/51 70/132/51 86/156/51 87/157/51
f 64/119/51 63/116/51 79/149/51 80/150/51
f 72/137/51 71/134/51 87/157/51 88/158/51
f 86/156/51 85/155/51 101/181/51 102/183/51
f 79/149/51 78/148/51 94/165/51 95/167/51
f 87/157/51 86/156/51 102/183/51 103/185/51
f 80/150/51 79/149/51 95/167/51 96/169/51
f 88/158/51 87/157/51 103/185/51 104/187/51
f 81/151/51 80/150/51 96/169/51 97/172/51
f 89/159/51 88/158/51 104/187/51 105/190/51
f 82/152/51 81/151/51 97/172/51 98/174/51
f 90/160/51 89/159/51 105/190/51 106/194/51
f 83/153/51 82/152/51 98/174/51 99/176/51
f 91/161/51 90/160/51 106/194/51 107/196/51
f 84/154/51 83/153/51 99/176/51 100/178/51
f 92/162/51 91/161/51 107/196/51 108/198/51
f 85/155/51 84/154/51 100/178/51 101/181/51
f 78/148/51 77/147/51 93/163/51 94/165/51
f 77/147/51 92/162/51 108/198/51 93/163/51
f 163/303/40 108/199/40 107/197/37 162/301/37
f 156/286/44 101/182/44 100/179/41 155/283/41
f 148/269/42 93/164/42 108/200/40 163/304/40
f 157/288/43 102/184/43 101/182/44 156/286/44
f 150/272/47 95/168/47 94/166/45 149/271/45
f 158/290/46 103/186/46 102/184/43 157/288/43
f 151/274/49 96/170/49 95/168/47 150/272/47
f 159/292/48 104/188/48 103/186/46 158/290/46
f 152/277/36 97/173/36 96/171/49 151/275/49
f 160/297/52 105/192/52 104/189/48 159/293/48
f 153/279/35 98/175/35 97/173/36 152/277/36
f 161/299/38 106/195/38 105/192/53 160/297/53
f 154/281/39 99/177/39 98/175/35 153/279/35
f 162/301/37 107/197/37 106/195/38 161/299/38
f 155/284/41 100/180/41 99/177/39 154/281/39
f 115/213/44 178/336/44 186/354/44 170/318/44
f 111/205/51 175/330/51 176/333/51 112/207/51
f 168/314/54 181/345/54 184/350/54 167/312/54
f 171/321/36 179/339/36 182/347/55 174/329/55
f 114/211/51 177/334/51 178/337/51 115/214/51
f 110/203/51 174/328/51 175/330/51 111/205/51
f 167/312/54 184/350/54 183/348/54 166/310/54
f 58/107/35 129/245/35 128/243/36 57/106/36
f 51/98/37 122/229/37 121/227/38 50/97/38
f 59/108/39 130/247/39 129/245/35 58/107/35
f 52/99/40 123/231/40 122/229/37 51/98/37
f 60/109/41 131/249/41 130/247/39 59/108/39
f 53/101/42 124/234/42 123/232/40 52/100/40
f 46/92/43 117/218/43 116/216/44 45/91/44
f 45/91/44 116/216/44 131/250/41 60/110/41
f 54/102/45 125/236/45 124/234/42 53/101/42
f 47/93/46 118/220/46 117/218/43 46/92/43
f 55/103/47 126/238/47 125/236/45 54/102/45
f 48/94/48 119/222/48 118/220/46 47/93/46
f 56/104/49 127/240/49 126/238/47 55/103/47
f 49/96/50 120/225/50 119/223/48 48/95/48
f 57/106/36 128/243/36 127/241/49 56/105/49
f 50/97/38 121/227/38 120/225/50 49/96/50
f 120/226/54 136/256/54 135/255/54 119/224/54
f 128/244/54 144/264/54 143/263/54 127/242/54
f 121/228/54 137/257/54 136/256/54 120/226/54
f 129/246/54 145/265/54 144/264/54 128/244/54
f 122/230/54 138/258/54 137/257/54 121/228/54
f 130/248/54 146/266/54 145/265/54 129/246/54
f 123/233/54 139/259/54 138/258/54 122/230/54
f 131/251/54 147/267/54 146/266/54 130/248/54
f 124/235/54 140/260/54 139/259/54 123/233/54
f 117/219/54 133/253/54 132/252/54 116/217/54
f 116/217/54 132/252/54 147/267/54 131/251/54
f 125/237/54 141/261/54 140/260/54 124/235/54
f 118/221/54 134/254/54 133/253/54 117/219/54
f 126/239/54 142/262/54 141/261/54 125/237/54
f 119/224/54 135/255/54 134/254/54 118/221/54
f 127/242/54 143/263/54 142/262/54 126/239/54
f 141/261/54 157/289/54 156/287/54 140/260/54
f 134/254/54 150/273/54 149/270/54 133/253/54
f 142/262/54 158/291/54 157/289/54 141/261/54
f 135/255/54 151/276/54 150/273/54 134/254/54
f 143/263/54 159/294/54 158/291/54 142/262/54
f 136/256/54 152/278/54 151/276/54 135/255/54
f 144/264/54 160/295/54 159/294/54 143/263/54
f 137/257/54 153/280/54 152/278/54 136/256/54
f 145/265/54 161/300/54 160/295/54 144/264/54
f 138/258/54 154/282/54 153/280/54 137/257/54
f 146/266/54 162/302/54 161/300/54 145/265/54
f 139/259/54 155/285/54 154/282/54 138/258/54
f 147/267/54 163/305/54 162/302/54 146/266/54
f 140/260/54 156/287/54 155/285/54 139/259/54
f 133/253/54 149/270/54 148/268/54 132/252/54
f 132/252/54 148/268/54 163/305/54 147/267/54
f 169/316/54 185/353/54 180/343/54 164/306/54
f 105/191/51 171/322/51 174/328/51 110/203/51
f 166/310/54 183/348/54 182/346/54 165/308/54
f 165/308/54 182/346/54 179/340/54 160/296/54
f 109/201/51 172/324/51 177/334/51 114/211/51
f 113/209/51 173/327/51 172/324/51 109/201/51
f 176/332/56 184/351/56 181/344/57 173/326/57
f 173/326/57 181/344/57 180/342/58 172/325/58
f 172/325/58 180/342/58 185/352/59 177/335/59
f 174/329/55 182/347/55 183/349/60 175/331/60
f 175/331/60 183/349/60 184/351/56 176/332/56
f 177/335/59 185/352/59 186/355/61 178/338/61
f 105/192/50 110/204/62 165/309/62 160/297/50
f 170/319/54 186/356/54 185/353/54 169/316/54
f 112/207/51 176/333/51 173/327/51 113/209/51
f 164/306/54 180/343/54 181/345/54 168/314/54
f 110/204/62 111/206/63 166/311/63 165/309/62
f 111/206/63 112/208/64 167/313/64 166/311/63
f 112/208/64 113/210/65 168/315/65 167/313/64
f 113/210/65 109/202/66 164/307/66 168/315/65
f 109/202/66 114/212/67 169/317/67 164/307/66
f 169/317/67 114/212/67 115/215/68 170/320/68
f 149/271/45 94/166/45 93/164/42 148/269/42
f 105/193/44 171/323/44 179/341/44 160/298/44
