# Blender 3.5.1
# www.blender.org
mtllib stolik.mtl
o Cube
v -2.261489 2.077029 1.203947
v -2.261489 2.156256 1.203947
v -2.261489 2.077029 -1.203947
v -2.261489 2.156256 -1.203947
v 2.261489 2.077029 1.203947
v 2.261489 2.156256 1.203947
v 2.261489 2.077029 -1.203947
v 2.261489 2.156256 -1.203947
v -2.261489 -0.002125 1.203947
v -1.361797 -0.002125 1.203947
v 1.361797 -0.002125 1.203947
v 2.261489 -0.002125 1.203947
v -1.361797 2.077029 -1.203947
v 1.361797 2.077029 -1.203947
v 1.361797 2.156256 -1.203947
v -1.361797 2.156256 -1.203947
v 1.361797 2.077029 1.203947
v -1.361797 2.077029 1.203947
v -1.361797 2.156256 1.203947
v 1.361797 2.156256 1.203947
v 2.261489 -0.002125 -1.203947
v 1.361797 -0.002125 -1.203947
v -2.261489 -0.002125 -1.203947
v -1.361797 -0.002125 -1.203947
v 2.261489 2.156256 -1.114820
v 2.261489 2.156256 1.114820
v 2.261489 2.077029 -1.114820
v 2.261489 2.077029 1.114820
v -2.261489 2.156256 -1.114820
v -2.261489 2.156256 1.114820
v -2.261489 2.077029 1.114820
v -2.261489 2.077029 -1.114820
v -1.361797 2.156256 1.114820
v -1.361797 2.156256 -1.114820
v 1.361797 2.156256 1.114820
v 1.361797 2.156256 -1.114820
v 1.361797 2.077029 1.114820
v 1.361797 2.077029 -1.114820
v -1.361797 2.077029 1.114820
v -1.361797 2.077029 -1.114820
v 2.261489 -0.002125 1.114820
v 1.361797 -0.002125 1.114820
v 1.361797 -0.002125 -1.114820
v 2.261489 -0.002125 -1.114820
v -1.361797 -0.002125 1.114820
v -2.261489 -0.002125 1.114820
v -2.261489 -0.002125 -1.114820
v -1.361797 -0.002125 -1.114820
v -2.261489 0.308659 1.114820
v -2.261489 0.398956 1.114820
v -2.261489 0.398956 1.203947
v -2.261489 0.308659 1.203947
v -1.361797 0.308659 1.114820
v -1.361797 0.398956 1.114820
v -1.361797 0.398956 1.203947
v -1.361797 0.308659 1.203947
v -1.361797 0.308659 -1.114820
v -1.361797 0.398956 -1.114820
v -2.261489 0.398956 -1.203947
v -2.261489 0.308659 -1.203947
v -1.361797 0.308659 -1.203947
v -1.361797 0.398956 -1.203947
v -2.261489 0.398956 -1.114820
v -2.261489 0.308659 -1.114820
v 1.361797 0.308659 1.203947
v 1.361797 0.398956 1.203947
v 1.361797 0.398956 1.114820
v 1.361797 0.308659 1.114820
v 2.261489 0.308659 1.114820
v 2.261489 0.398956 1.114820
v 2.261489 0.398956 1.203947
v 2.261489 0.308659 1.203947
v 2.261489 0.308659 -1.203947
v 2.261489 0.398956 -1.203947
v 1.361797 0.398956 -1.203947
v 1.361797 0.308659 -1.203947
v 2.261489 0.308659 -1.114820
v 2.261489 0.398956 -1.114820
v 1.361797 0.308659 -1.114820
v 1.361797 0.398956 -1.114820
vn 1.0000 -0.0000 -0.0000
vn -0.0000 1.0000 -0.0000
vn -0.0000 -1.0000 -0.0000
vn -1.0000 -0.0000 -0.0000
vn -0.0000 -0.0000 1.0000
vn -0.0000 -0.0000 -1.0000
vt 0.719879 0.753044
vt 0.485370 0.491425
vt 0.711271 0.753044
vt 0.476761 0.491425
vt 0.000000 0.491425
vt 0.719879 0.491425
vt 0.250860 0.982849
vt 0.261619 0.491425
vt 0.242252 0.982849
vt 0.711271 0.491425
vt 0.485370 0.982849
vt 0.774099 0.000000
vt 0.476761 0.982849
vt 0.000000 0.000000
vt 0.765491 0.000000
vt 0.774099 0.261619
vt 0.250860 0.491425
vt 0.261619 0.000000
vt 0.242252 0.491425
vt 0.765491 0.261619
vt 0.960995 0.557540
vt 0.711271 0.491425
vt 0.945781 0.753044
vt 0.960995 0.655292
vt 0.980490 0.261619
vt 0.711271 0.589177
vt 0.980490 0.261619
vt 0.980490 0.585273
vt 0.711271 0.885097
vt 1.000000 0.000000
vt 0.980490 0.683025
vt 0.711271 0.982849
vt 0.261619 0.393673
vt 0.980490 0.713422
vt 0.250860 0.885097
vt 0.261619 0.097752
vt 0.250860 0.589177
vt 0.974309 0.978945
vt 0.242252 0.589177
vt 0.261619 0.097752
vt 0.242252 0.885097
vt 0.261619 0.393673
vt 0.523239 0.097752
vt 0.980490 0.487521
vt 0.485370 0.885097
vt 0.523239 0.393673
vt 0.980490 0.487521
vt 0.485370 0.589177
vt 0.476761 0.589177
vt 0.000000 0.393673
vt 0.476761 0.885097
vt 0.000000 0.097752
vt 0.970679 0.753044
vt 1.000000 0.261619
vt 0.476761 0.491425
vt 0.970679 0.655292
vt 0.974309 0.753044
vt 0.476761 0.589177
vt 0.990173 0.487521
vt 0.476761 0.982849
vt 0.945781 0.491425
vt 0.990173 0.585273
vt 0.476761 0.885097
vt 0.980490 0.487521
vt 0.765491 0.251936
vt 0.251936 0.000000
vt 0.009684 0.000000
vt 0.765491 0.009684
vt 0.271303 0.000000
vt 0.774099 0.251936
vt 0.863243 0.443943
vt 0.513555 0.000000
vt 0.774099 0.009684
vt 0.809023 0.935368
vt 0.251936 0.491425
vt 0.711271 0.501108
vt 0.009684 0.491425
vt 0.711271 0.743360
vt 0.513555 0.491425
vt 0.809023 0.935368
vt 0.719879 0.743360
vt 0.863243 0.443943
vt 0.271303 0.491425
vt 0.719879 0.501108
vt 0.009684 0.393673
vt 0.251936 0.393673
vt 0.009684 0.097752
vt 0.251936 0.097752
vt 0.513555 0.097752
vt 0.970806 0.487521
vt 0.906775 0.935368
vt 0.271303 0.097752
vt 0.765491 0.443943
vt 0.983993 0.978945
vt 0.513555 0.393673
vt 0.711271 0.935368
vt 0.990173 0.487521
vt 0.960995 0.443943
vt 0.271303 0.393673
vt 0.970806 0.713422
vt 1.000000 0.009684
vt 0.990173 0.683025
vt 0.940542 0.850796
vt 0.970806 0.261619
vt 0.990173 0.585273
vt 0.940542 0.948548
vt 0.960995 0.655292
vt 0.974309 0.850796
vt 0.983993 0.753044
vt 0.960995 0.753044
vt 0.974309 0.948548
vt 1.000000 0.251936
vt 0.970679 0.655292
vt 0.990173 0.261619
vt 0.974309 0.753044
vt 0.970679 0.557540
vt 0.945781 0.743360
vt 0.974309 0.850796
vt 0.980490 0.487521
vt 0.940542 0.753044
vt 0.945781 0.501108
vt 0.980490 0.585273
vt 0.940542 0.850796
vt 0.970806 0.487521
vt 0.000000 0.491425
vt 0.940542 0.850796
vt 0.912014 0.743360
vt 0.809023 0.753044
vt 0.523239 0.491425
vt 0.902203 0.743360
vt 0.667693 0.491425
vt 0.902203 0.753044
vt 0.677504 0.491425
vt 0.912014 0.753044
vt 0.990173 0.295386
vt 0.940542 0.753044
vt 0.000000 0.589177
vt 0.970806 0.261619
vt 0.711271 0.753044
vt 0.990173 0.305197
vt 0.523239 0.393673
vt 0.960995 0.261619
vt 0.980490 0.305197
vt 0.667693 0.589177
vt 0.980490 0.295386
vt 0.677504 0.589177
vt 0.906775 0.850796
vt 0.970806 0.521288
vt 0.242252 0.589177
vt 0.960995 0.739863
vt 0.960995 0.261619
vt 0.970806 0.531099
vt 0.765491 0.393673
vt 0.951184 0.739863
vt 0.902203 0.491425
vt 0.433184 0.982849
vt 0.912014 0.491425
vt 0.442995 0.982849
vt 0.980490 0.521288
vt 0.442995 0.885097
vt 0.980490 0.531099
vt 0.433184 0.885097
vt 0.863243 0.261619
vt 0.765491 0.491425
vt 0.902203 0.501108
vt 0.906775 0.753044
vt 0.242252 0.491425
vt 0.912014 0.501108
vt 0.980490 0.295386
vt 0.677504 0.885097
vt 0.980490 0.305197
vt 0.667693 0.885097
vt 0.906775 0.753044
vt 0.970806 0.305197
vt 0.523239 0.097752
vt 0.960995 0.557540
vt 0.906775 0.948548
vt 0.970806 0.295386
vt 0.000000 0.885097
vt 0.970806 0.557540
vt 0.906775 0.850796
vt 0.000000 0.982849
vt 0.966233 0.009684
vt 0.809023 0.753044
vt 0.956422 0.009684
vt 0.523239 0.000000
vt 0.956422 0.000000
vt 0.667693 0.982849
vt 0.966233 0.000000
vt 0.677504 0.982849
vt 0.966233 0.261619
vt 0.442995 0.491425
vt 0.956422 0.261619
vt 0.433184 0.491425
vt 0.974309 0.796622
vt 0.433184 0.589177
vt 0.974309 0.786811
vt 0.442995 0.589177
vt 0.940542 0.948548
vt 0.242252 0.982849
vt 0.966233 0.251936
vt 0.863243 0.261619
vt 0.765491 0.000000
vt 0.956422 0.251936
vt 0.940542 0.850796
vt 0.983993 0.786811
vt 0.242252 0.885097
vt 0.960995 0.443943
vt 0.765491 0.261619
vt 0.983993 0.796622
vt 0.765491 0.097752
vt 0.951184 0.443943
s 1
f 69/183/1 72/189/1 12/30/1 41/101/1
f 7/16/1 27/70/1 78/204/1 74/193/1
f 8/18/2 15/40/2 36/88/2 25/66/2
f 37/89/3 17/43/3 18/46/3 39/95/3
f 65/169/4 68/178/4 42/104/4 11/27/4
f 5/11/5 6/13/5 20/51/5 17/45/5
f 1/1/4 2/3/4 30/78/4 31/81/4
f 14/37/6 15/39/6 8/19/6 7/17/6
f 18/48/5 19/49/5 2/4/5 1/2/5
f 16/42/2 4/8/2 29/75/2 34/86/2
f 14/36/3 38/92/3 40/99/3 13/33/3
f 46/116/3 45/113/3 10/24/3 9/21/3
f 19/49/5 18/48/5 17/45/5 20/51/5
f 15/39/6 14/37/6 13/35/6 16/41/6
f 3/7/6 4/9/6 16/41/6 13/35/6
f 33/85/2 19/50/2 20/52/2 35/87/2
f 40/98/5 32/82/5 63/163/5 58/151/5
f 33/85/2 30/77/2 2/5/2 19/50/2
f 16/42/2 34/86/2 36/88/2 15/40/2
f 26/67/2 35/87/2 20/52/2 6/14/2
f 7/16/1 8/20/1 25/65/1 27/70/1
f 32/84/4 29/76/4 4/10/4 3/6/4
f 30/77/2 33/85/2 34/86/2 29/75/2
f 28/72/3 37/89/3 38/92/3 27/69/3
f 33/85/2 35/87/2 36/88/2 34/86/2
f 37/89/3 39/95/3 40/99/3 38/92/3
f 39/95/3 31/79/3 32/83/3 40/99/3
f 26/68/1 28/73/1 27/70/1 25/65/1
f 35/87/2 26/67/2 25/66/2 36/88/2
f 29/76/4 32/84/4 31/81/4 30/78/4
f 28/73/1 26/68/1 6/15/1 5/12/1
f 22/56/3 21/53/3 44/110/3 43/107/3
f 23/59/3 24/62/3 48/122/3 47/119/3
f 42/105/3 41/102/3 12/31/3 11/28/3
f 17/44/4 37/90/4 67/174/4 66/171/4
f 14/37/6 7/17/6 74/194/6 75/196/6
f 31/80/6 39/96/6 54/139/6 50/128/6
f 1/1/4 31/81/4 50/130/4 51/132/4
f 53/135/1 56/145/1 10/25/1 45/114/1
f 27/71/5 38/93/5 80/209/5 78/202/5
f 32/84/4 3/6/4 59/155/4 63/165/4
f 77/199/5 79/205/5 43/108/5 44/111/5
f 39/97/1 18/47/1 55/143/1 54/140/1
f 13/34/1 40/100/1 58/152/1 62/161/1
f 5/11/5 17/45/5 66/172/5 71/188/5
f 28/73/1 5/12/1 71/187/1 70/185/1
f 57/147/5 64/166/5 47/120/5 48/123/5
f 56/146/5 52/133/5 9/22/5 10/26/5
f 18/48/5 1/2/5 51/131/5 55/144/5
f 52/134/4 49/127/4 46/117/4 9/23/4
f 3/7/6 13/35/6 62/162/6 59/156/6
f 60/158/6 61/160/6 24/63/6 23/60/6
f 61/159/1 57/148/1 48/124/1 24/64/1
f 64/168/4 60/157/4 23/61/4 47/121/4
f 73/191/1 77/201/1 44/112/1 21/54/1
f 37/91/6 28/74/6 70/184/6 67/173/6
f 72/190/5 65/170/5 11/29/5 12/32/5
f 68/177/6 69/181/6 41/103/6 42/106/6
f 79/206/4 76/197/4 22/57/4 43/109/4
f 58/153/2 63/164/2 50/129/2 54/141/2
f 38/94/4 14/38/4 75/195/4 80/210/4
f 76/198/6 73/192/6 21/55/6 22/58/6
f 56/145/1 53/135/1 54/140/1 55/143/1
f 52/133/5 56/146/5 55/144/5 51/131/5
f 57/149/3 53/137/3 49/125/3 64/167/3
f 49/127/4 52/134/4 51/132/4 50/130/4
f 79/207/3 77/200/3 69/182/3 68/179/3
f 60/157/4 64/168/4 63/165/4 59/155/4
f 57/148/1 61/159/1 62/161/1 58/152/1
f 61/160/6 60/158/6 59/156/6 62/162/6
f 72/189/1 69/183/1 70/185/1 71/187/1
f 68/178/4 65/169/4 66/171/4 67/174/4
f 65/170/5 72/190/5 71/188/5 66/172/5
f 78/204/1 70/185/1 69/183/1 77/201/1
f 76/197/4 79/206/4 80/210/4 75/195/4
f 78/203/2 80/211/2 67/175/2 70/186/2
f 77/201/1 73/191/1 74/193/1 78/204/1
f 73/192/6 76/198/6 75/196/6 74/194/6
f 49/126/6 53/136/6 45/115/6 46/118/6
f 63/165/4 64/168/4 49/127/4 50/130/4
f 57/149/3 79/207/3 68/179/3 53/137/3
f 80/211/2 58/153/2 54/141/2 67/175/2
f 80/212/6 79/208/6 57/150/6 58/154/6
f 67/176/5 54/142/5 53/138/5 68/180/5
