# Blender 3.5.1
# www.blender.org
mtllib untitled4.mtl
o Cube
v -2.621719 -2.128451 0.449003
v -2.621719 2.128451 0.449002
v -2.621719 2.128451 -0.449003
v -2.621719 -2.128451 -0.449002
v 2.621719 -2.128451 -0.449002
v 2.621719 2.128451 -0.449003
v 2.621719 2.128451 0.449002
v 2.621719 -2.128451 0.449003
v -2.285506 -1.855495 0.449003
v 2.285506 -1.855495 0.449003
v 2.285506 -1.855495 0.064112
v -2.285506 -1.855495 0.064112
v -2.285506 1.855495 0.449002
v 2.285506 1.855495 0.449002
v 2.285506 1.855495 0.064111
v -2.285506 1.855495 0.064111
vn -1.0000 -0.0000 -0.0000
vn 1.0000 -0.0000 -0.0000
vn -0.0000 1.0000 -0.0000
vn -0.0000 -1.0000 -0.0000
vn -0.0000 -0.0000 1.0000
vt 0.537663 0.790576
vt 0.247535 0.784064
vt 0.982214 0.515421
vt 0.510492 0.537663
vt 0.537663 0.544175
vt 0.000378 0.784064
vt 0.982214 0.269021
vt 0.527047 0.784064
vt 0.784064 0.544175
vt 0.246779 0.784064
vt 0.784064 0.790576
vt 0.247535 0.537663
vt 0.784064 0.000378
vt 0.493936 0.537663
vt 0.784064 0.246779
vt 0.246779 0.537663
vt 0.537663 0.246779
vt 0.000378 0.537663
vt 0.998770 0.515422
vt 0.527047 0.537663
vt 0.537663 0.000378
vt 0.493936 0.784064
vt 0.998770 0.269021
vt 0.510492 0.784064
vt 0.784820 0.974535
vt 0.966415 0.499622
vt 0.494692 0.553463
vt 0.891185 0.759733
vt 0.784820 0.759733
vt 0.982970 0.284820
vt 0.494692 0.768264
vt 0.784820 0.758977
vt 0.890429 0.759733
vt 0.784820 0.215180
vt 0.890429 0.758977
vt 0.890429 0.974535
vt 0.999622 0.215180
vt 0.996794 0.759733
vt 0.966415 0.284820
vt 0.511248 0.768264
vt 0.891185 0.974535
vt 0.996794 0.758977
vt 0.982970 0.499622
vt 0.511248 0.553462
vt 0.996794 0.544175
vt 0.784820 0.544175
vt 0.784820 0.000378
vt 0.891185 0.544175
vt 0.890429 0.544175
vt 0.999622 0.000378
vt 0.996794 0.974535
vt 0.891185 0.758977
s 1
usemtl DefaultMaterial.001
f 4/11/1 1/1/1 2/5/1
f 2/5/1 3/9/1 4/11/1
f 8/21/2 5/13/2 6/15/2
f 6/15/2 7/17/2 8/21/2
f 12/36/3 9/25/3 10/29/3
f 10/29/3 11/33/3 12/36/3
f 1/2/4 4/12/4 5/14/4
f 5/14/4 8/22/4 1/2/4
f 7/18/3 6/16/3 3/10/3
f 3/10/3 2/6/3 7/18/3
f 1/3/5 9/26/5 13/39/5
f 13/39/5 2/7/5 1/3/5
f 7/19/5 14/43/5 10/30/5
f 10/30/5 8/23/5 7/19/5
f 8/24/5 10/31/5 9/27/5
f 9/27/5 1/4/5 8/24/5
f 2/8/5 13/40/5 14/44/5
f 14/44/5 7/20/5 2/8/5
f 12/37/5 11/34/5 15/47/5
f 15/47/5 16/50/5 12/37/5
f 16/51/2 13/41/2 9/28/2
f 9/28/2 12/38/2 16/51/2
f 15/48/4 14/45/4 13/42/4
f 13/42/4 16/52/4 15/48/4
f 11/35/1 10/32/1 14/46/1
f 14/46/1 15/49/1 11/35/1
o Cube.002
v 0.694849 -1.992103 -0.025796
v 0.694849 1.992103 -0.025797
v 0.694849 1.992103 0.299717
v 0.694849 -1.992103 0.299718
v 0.505576 1.992103 0.299717
v 0.505576 -1.992103 0.299718
vn 1.0000 -0.0000 -0.0000
vn -0.0000 -0.0000 1.0000
vt 0.268264 0.000378
vt 0.268264 0.268264
vt 0.000378 0.268264
vt 0.268264 0.536907
vt 0.000378 0.000378
vt 0.268264 0.269021
vt 0.000378 0.536907
vt 0.000378 0.269021
s 1
usemtl DefaultMaterial.001
f 20/57/6 17/53/6 18/54/6
f 18/54/6 19/55/6 20/57/6
f 22/60/7 20/58/7 19/56/7
f 19/56/7 21/59/7 22/60/7
o Cube.003
v 0.312854 -1.992103 0.299718
v 0.312854 1.992103 0.299717
v 0.312854 1.992103 -0.025797
v 0.312854 -1.992103 -0.025796
v 0.502127 -1.992103 0.299718
v 0.502127 1.992103 0.299717
vn -1.0000 -0.0000 -0.0000
vn -0.0000 -0.0000 1.0000
vt 0.536907 0.269021
vt 0.269021 0.000378
vt 0.536907 0.536907
vt 0.269021 0.268264
vt 0.269021 0.536907
vt 0.269021 0.269021
vt 0.536907 0.000378
vt 0.536907 0.268264
s 1
usemtl DefaultMaterial.001
f 26/66/8 23/61/8 24/63/8
f 24/63/8 25/65/8 26/66/8
f 23/62/9 27/67/9 28/68/9
f 28/68/9 24/64/9 23/62/9
o Cube.004
v 0.345299 -0.081194 0.228413
v 0.345299 -0.081194 0.390801
v 0.345299 0.042642 0.390801
v 0.345299 0.042642 0.228413
v 0.425397 -0.081194 0.228413
v 0.425397 0.042642 0.228413
v 0.425397 -0.081194 0.390801
v 0.425397 0.042642 0.390801
v 0.425397 0.006371 0.440204
v 0.425397 -0.407040 0.390801
v 0.425397 -0.081194 0.460668
v 0.425397 -0.407040 0.460668
v 0.345299 -0.407040 0.460668
v 0.345299 -0.407040 0.390801
v 0.345299 -0.081194 0.460668
v 0.345299 0.006371 0.440204
vn -1.0000 -0.0000 -0.0000
vn -0.0000 -0.0000 -1.0000
vn 1.0000 -0.0000 -0.0000
vn -0.0000 -1.0000 -0.0000
vn -0.0000 1.0000 -0.0000
vn -0.0000 -0.0000 1.0000
vn -0.0000 0.8061 0.5918
vn -0.0000 0.2276 0.9738
vt 0.732646 0.513148
vt 0.702375 0.527093
vt 0.746591 0.543419
vt 0.777011 0.416288
vt 0.664700 0.456845
vt 0.691741 0.504009
vt 0.708067 0.459793
vt 0.722012 0.490064
vt 0.747577 0.506269
vt 0.736943 0.483185
vt 0.777848 0.492324
vt 0.761523 0.536540
vt 0.740905 0.416083
vt 0.767214 0.469240
vt 0.722956 0.452889
vt 0.717738 0.437903
vt 0.090546 0.888192
vt 0.741742 0.269200
vt 0.709411 0.415903
vt 0.710249 0.269021
vt 0.000378 0.888192
vt 0.653664 0.306828
vt 0.000378 0.784820
vt 0.626851 0.320531
vt 0.555562 0.346131
vt 0.090546 0.784820
vt 0.777848 0.269406
vt 0.537663 0.373369
vt 0.682598 0.429606
vt 0.697045 0.447778
s 1
usemtl DefaultMaterial.001
f 29/69/10 30/70/10 31/74/10
f 31/74/10 32/76/10 29/69/10
f 33/77/11 29/69/11 32/76/11
f 32/76/11 34/78/11 33/77/11
f 35/79/12 33/77/12 34/78/12
f 34/78/12 36/82/12 35/79/12
f 35/81/12 36/83/12 37/84/12
f 30/71/13 29/69/13 33/77/13
f 33/77/13 35/80/13 30/71/13
f 36/83/14 34/78/14 32/76/14
f 32/76/14 31/75/14 36/83/14
f 38/86/12 35/81/12 39/87/12
f 39/87/12 40/88/12 38/86/12
f 41/91/13 42/94/13 38/85/13
f 38/85/13 40/89/13 41/91/13
f 40/90/15 39/87/15 43/97/15
f 43/97/15 41/92/15 40/90/15
f 42/95/11 30/72/11 35/81/11
f 35/81/11 38/86/11 42/95/11
f 41/93/10 43/97/10 30/73/10
f 30/73/10 42/96/10 41/93/10
f 37/84/16 36/83/16 31/75/16
f 31/75/16 44/98/16 37/84/16
f 39/87/17 37/84/17 44/98/17
f 44/98/17 43/97/17 39/87/17
f 30/73/10 43/97/10 44/98/10
f 39/87/12 35/81/12 37/84/12
f 31/75/10 30/73/10 44/98/10
o Cube.005
v 0.550728 -0.081194 0.228413
v 0.550728 -0.081194 0.390801
v 0.550728 0.042642 0.390801
v 0.550728 0.042642 0.228413
v 0.630827 -0.081194 0.228413
v 0.630827 0.042642 0.228413
v 0.630827 -0.081194 0.390801
v 0.630827 0.042642 0.390801
v 0.630827 0.006371 0.440204
v 0.630827 -0.407040 0.390801
v 0.630827 -0.081194 0.460668
v 0.630827 -0.407040 0.460668
v 0.550728 -0.407040 0.460668
v 0.550728 -0.407040 0.390801
v 0.550728 -0.081194 0.460668
v 0.550728 0.006371 0.440204
vn -1.0000 -0.0000 -0.0000
vn -0.0000 -0.0000 -1.0000
vn 1.0000 -0.0000 -0.0000
vn -0.0000 -1.0000 -0.0000
vn -0.0000 1.0000 -0.0000
vn -0.0000 -0.0000 1.0000
vn -0.0000 0.8061 0.5918
vn -0.0000 0.2276 0.9738
vt 0.905052 0.324351
vt 0.923390 0.312045
vt 0.924012 0.392289
vt 0.932174 0.334427
vt 0.896912 0.368478
vt 0.902984 0.341492
vt 0.894304 0.317918
vt 0.889673 0.338497
vt 0.867318 0.311845
vt 0.915368 0.301654
vt 0.853224 0.380732
vt 0.862687 0.332425
vt 0.883616 0.365521
vt 0.879499 0.378030
vt 0.778605 0.477131
vt 0.172789 0.878241
vt 0.957636 0.269021
vt 0.873894 0.396731
vt 0.799274 0.493131
vt 0.091302 0.878241
vt 0.855638 0.496743
vt 0.091302 0.784820
vt 0.880223 0.501231
vt 0.940124 0.520305
vt 0.172789 0.784820
vt 0.965658 0.279411
vt 0.965658 0.511375
vt 0.898478 0.401219
vt 0.898118 0.381956
s 1
usemtl DefaultMaterial.001
f 45/99/18 46/100/18 47/102/18
f 47/102/18 48/104/18 45/99/18
f 49/105/19 45/99/19 48/104/19
f 48/104/19 50/106/19 49/105/19
f 51/107/20 49/105/20 50/106/20
f 50/106/20 52/110/20 51/107/20
f 51/109/20 52/111/20 53/112/20
f 46/100/21 45/99/21 49/105/21
f 49/105/21 51/108/21 46/100/21
f 52/111/22 50/106/22 48/104/22
f 48/104/22 47/103/22 52/111/22
f 54/113/20 51/109/20 55/116/20
f 55/116/20 56/117/20 54/113/20
f 57/120/21 58/123/21 54/114/21
f 54/114/21 56/118/21 57/120/21
f 56/119/23 55/116/23 59/126/23
f 59/126/23 57/121/23 56/119/23
f 58/124/19 46/100/19 51/108/19
f 51/108/19 54/115/19 58/124/19
f 57/122/18 59/126/18 46/101/18
f 46/101/18 58/125/18 57/122/18
f 53/112/24 52/111/24 47/103/24
f 47/103/24 60/127/24 53/112/24
f 55/116/25 53/112/25 60/127/25
f 60/127/25 59/126/25 55/116/25
f 46/101/18 59/126/18 60/127/18
f 55/116/20 51/109/20 53/112/20
f 47/103/18 46/101/18 60/127/18
