# Blender 3.5.1
# www.blender.org
mtllib shelf.mtl
o Cube
v -1.506124 0.004789 2.357816
v -1.506124 9.480314 2.357816
v -1.506124 0.004789 -2.357816
v -1.506124 9.480314 -2.357816
v 1.506124 0.004789 2.357816
v 1.506124 9.480314 2.357816
v 1.506124 0.004789 -2.357816
v 1.506124 9.480314 -2.357816
vn -1.0000 -0.0000 -0.0000
vn -0.0000 -0.0000 -1.0000
vn 1.0000 -0.0000 -0.0000
vn -0.0000 -0.0000 1.0000
vn -0.0000 -1.0000 -0.0000
vn -0.0000 1.0000 -0.0000
vt 0.146098 0.002079
vt 0.146098 0.578154
vt 0.002079 0.434135
vt 0.290117 0.002079
vt 0.290117 0.578154
vt 0.434135 0.434135
vt 0.146098 0.146098
vt 0.002079 0.290117
vt 0.290117 0.146098
vt 0.434135 0.290117
vt 0.146098 0.434135
vt 0.290117 0.434135
vt 0.146098 0.290117
vt 0.290117 0.290117
s 0
f 1/1/1 2/4/1 4/9/1 3/7/1
f 3/7/2 4/9/2 8/14/2 7/13/2
f 7/13/3 8/14/3 6/12/3 5/11/3
f 5/11/4 6/12/4 2/5/4 1/2/4
f 3/8/5 7/13/5 5/11/5 1/3/5
f 8/14/6 4/10/6 2/6/6 6/12/6
o Cube.001
v 1.510703 0.004789 2.357816
v 1.510703 9.480314 2.357816
v 1.510703 0.004789 -2.357816
v 1.510703 9.480314 -2.357816
v 1.623984 9.480314 -2.357816
v 1.623984 0.004789 -2.357816
v 1.623984 0.004789 2.357816
v 1.623984 9.480314 2.357816
v 1.510703 0.004789 0.019722
v 1.510703 0.004789 -0.019722
v 1.510703 9.480314 -0.019722
v 1.510703 9.480314 0.019722
v 1.623984 0.004789 -0.019722
v 1.623984 0.004789 0.019722
v 1.623984 9.480314 0.019722
v 1.623984 9.480314 -0.019722
v 1.753456 4.214048 -0.382651
v 1.753456 4.302665 -0.382651
v 1.753456 4.214048 -0.280454
v 1.753456 4.302665 -0.280454
v 1.753456 4.214048 0.382651
v 1.753456 4.214048 0.280454
v 1.753456 4.302665 0.280454
v 1.753456 4.302665 0.382651
v 1.753456 5.271056 -0.280454
v 1.753456 5.182438 -0.280454
v 1.753456 5.182438 -0.382651
v 1.753456 5.271056 -0.382651
v 1.753456 5.271056 0.280454
v 1.753456 5.182438 0.382651
v 1.753456 5.271056 0.382651
v 1.753456 5.182438 0.280454
v 1.832288 4.302665 0.280454
v 1.832288 4.214048 0.280454
v 1.832288 4.214048 0.382651
v 1.832288 4.302665 0.382651
v 1.832288 5.182438 0.382651
v 1.832288 5.271056 0.382651
v 1.832288 5.271056 0.280454
v 1.832288 5.182438 0.280454
v 1.623984 9.480314 -0.280454
v 1.623984 0.004789 -0.280454
v 1.510703 9.480314 -0.280454
v 1.510703 0.004789 -0.280454
v 1.510703 0.004789 0.280454
v 1.510703 9.480314 0.280454
v 1.623984 0.004789 0.280454
v 1.623984 9.480314 0.280454
v 1.832288 5.271056 -0.382651
v 1.832288 5.182438 -0.382651
v 1.832288 5.182438 -0.280454
v 1.832288 5.271056 -0.280454
v 1.832288 4.214048 -0.280454
v 1.832288 4.302665 -0.280454
v 1.832288 4.302665 -0.382651
v 1.832288 4.214048 -0.382651
v 1.510703 4.302665 2.357816
v 1.510703 5.182438 2.357816
v 1.623984 5.182438 2.357816
v 1.623984 4.302665 2.357816
v 1.623984 5.271056 0.019722
v 1.623984 5.182438 0.019722
v 1.623984 4.302665 0.019722
v 1.623984 4.214048 0.019722
v 1.510703 4.214048 0.019722
v 1.510703 4.302665 0.019722
v 1.510703 5.182438 0.019722
v 1.510703 5.271056 0.019722
v 1.510703 5.182438 -2.357816
v 1.510703 4.302665 -2.357816
v 1.623984 4.302665 -2.357816
v 1.623984 5.182438 -2.357816
v 1.623984 4.214048 -0.019722
v 1.623984 4.302665 -0.019722
v 1.623984 5.182438 -0.019722
v 1.623984 5.271056 -0.019722
v 1.510703 5.271056 -0.019722
v 1.510703 5.182438 -0.019722
v 1.510703 4.302665 -0.019722
v 1.510703 4.214048 -0.019722
v 1.623984 4.214048 -0.382651
v 1.623984 4.302665 -0.382651
v 1.623984 4.302665 -0.280454
v 1.623984 4.214048 -0.280454
v 1.623984 5.271056 -0.280454
v 1.623984 5.182438 -0.280454
v 1.623984 5.182438 -0.382651
v 1.623984 5.271056 -0.382651
v 1.510703 4.214048 -0.280454
v 1.510703 4.302665 -0.280454
v 1.510703 4.302665 -0.382651
v 1.510703 4.214048 -0.382651
v 1.510703 5.271056 -0.382651
v 1.510703 5.182438 -0.382651
v 1.510703 5.182438 -0.280454
v 1.510703 5.271056 -0.280454
v 1.623984 5.182438 0.280454
v 1.623984 5.271056 0.280454
v 1.623984 5.271056 0.382651
v 1.623984 5.182438 0.382651
v 1.623984 4.302665 0.382651
v 1.623984 4.214048 0.382651
v 1.623984 4.214048 0.280454
v 1.623984 4.302665 0.280454
v 1.510703 5.182438 0.382651
v 1.510703 5.271056 0.382651
v 1.510703 5.271056 0.280454
v 1.510703 5.182438 0.280454
v 1.510703 4.214048 0.382651
v 1.510703 4.302665 0.382651
v 1.510703 4.302665 0.280454
v 1.510703 4.214048 0.280454
vn -1.0000 -0.0000 -0.0000
vn -0.0000 1.0000 -0.0000
vn 1.0000 -0.0000 -0.0000
vn -0.0000 -0.0000 -1.0000
vn -0.0000 -1.0000 -0.0000
vn -0.0000 -0.0000 1.0000
vt 0.444423 0.518903
vt 0.977346 0.514744
vt 0.956771 0.002079
vt 0.448581 0.518903
vt 0.977346 0.002079
vt 0.956771 0.514744
vt 0.475285 0.645403
vt 0.997921 0.002079
vt 0.699612 0.002079
vt 0.458869 0.645403
vt 0.997921 0.514744
vt 0.699612 0.514744
vt 0.464998 0.645403
vt 0.991792 0.514744
vt 0.695453 0.514744
vt 0.469156 0.645403
vt 0.991792 0.002079
vt 0.695453 0.002079
vt 0.438294 0.518903
vt 0.971217 0.514744
vt 0.564794 0.514744
vt 0.454710 0.518903
vt 0.971217 0.002079
vt 0.564794 0.002079
vt 0.830271 0.002079
vt 0.444423 0.645403
vt 0.960930 0.514744
vt 0.826112 0.002079
vt 0.475285 0.518903
vt 0.981504 0.002079
vt 0.458869 0.518903
vt 0.826112 0.514744
vt 0.981504 0.514744
vt 0.830271 0.514744
vt 0.448581 0.645403
vt 0.960930 0.002079
vt 0.568953 0.002079
vt 0.469156 0.518903
vt 0.987633 0.002079
vt 0.438294 0.645403
vt 0.438294 0.514744
vt 0.967059 0.514744
vt 0.438294 0.002079
vt 0.454710 0.645403
vt 0.967059 0.002079
vt 0.464998 0.518903
vt 0.568953 0.514744
vt 0.987633 0.514744
vt 0.489131 0.584515
vt 0.532733 0.576091
vt 0.556374 0.566502
vt 0.541157 0.587254
vt 0.532733 0.571297
vt 0.494660 0.584515
vt 0.486448 0.518903
vt 0.550845 0.566502
vt 0.486448 0.523697
vt 0.546686 0.587254
vt 0.584170 0.574926
vt 0.501877 0.518903
vt 0.517305 0.576091
vt 0.578640 0.574926
vt 0.584170 0.566502
vt 0.498818 0.587254
vt 0.517305 0.571297
vt 0.578640 0.566502
vt 0.504348 0.587254
vt 0.501877 0.523697
vt 0.556374 0.577665
vt 0.486448 0.576091
vt 0.550845 0.518903
vt 0.486448 0.571297
vt 0.515829 0.580249
vt 0.556374 0.518903
vt 0.532733 0.523697
vt 0.510300 0.580249
vt 0.550844 0.577665
vt 0.532733 0.518903
vt 0.479443 0.587255
vt 0.517305 0.518903
vt 0.578640 0.518903
vt 0.574482 0.580249
vt 0.501877 0.571297
vt 0.501877 0.576091
vt 0.484972 0.587255
vt 0.584170 0.518903
vt 0.568953 0.580249
vt 0.517305 0.523697
vt 0.521570 0.571297
vt 0.568953 0.571297
vt 0.568953 0.576091
vt 0.578640 0.570660
vt 0.521570 0.576091
vt 0.506142 0.518903
vt 0.574482 0.576091
vt 0.584170 0.570660
vt 0.506142 0.523697
vt 0.574482 0.571297
vt 0.506142 0.571297
vt 0.574482 0.523697
vt 0.574482 0.518903
vt 0.484972 0.591520
vt 0.506142 0.576091
vt 0.568953 0.518903
vt 0.521570 0.518903
vt 0.479443 0.591520
vt 0.521570 0.523697
vt 0.568953 0.523697
vt 0.583060 0.514744
vt 0.464998 0.533009
vt 0.469156 0.533009
vt 0.583060 0.002079
vt 0.458869 0.533009
vt 0.812006 0.514744
vt 0.475285 0.533009
vt 0.812006 0.002079
vt 0.844378 0.002079
vt 0.444423 0.631297
vt 0.448581 0.631297
vt 0.844378 0.514744
vt 0.452401 0.514744
vt 0.438294 0.631297
vt 0.452401 0.002079
vt 0.454710 0.631297
vt 0.541157 0.518903
vt 0.536999 0.518903
vt 0.550844 0.581931
vt 0.536999 0.523697
vt 0.541157 0.523697
vt 0.490713 0.571297
vt 0.546686 0.523697
vt 0.490713 0.576091
vt 0.546686 0.518903
vt 0.556374 0.581931
vt 0.546686 0.576091
vt 0.490713 0.518903
vt 0.494660 0.580249
vt 0.490713 0.523697
vt 0.546686 0.571297
vt 0.536999 0.571297
vt 0.541157 0.571297
vt 0.541157 0.576091
vt 0.536999 0.576091
vt 0.489131 0.580249
vt 0.956771 0.234612
vt 0.977346 0.282211
vt 0.956771 0.282211
vt 0.977346 0.234612
vt 0.564794 0.234612
vt 0.971217 0.234612
vt 0.564794 0.282211
vt 0.971217 0.282211
vt 0.438294 0.229818
vt 0.967059 0.229817
vt 0.438294 0.234612
vt 0.967059 0.234612
vt 0.438294 0.282211
vt 0.967059 0.282211
vt 0.438294 0.287006
vt 0.967059 0.287006
vt 0.830271 0.229817
vt 0.960930 0.287006
vt 0.830271 0.234612
vt 0.960930 0.282211
vt 0.830271 0.282211
vt 0.960930 0.234612
vt 0.830271 0.287006
vt 0.960930 0.229817
vt 0.997921 0.282211
vt 0.699612 0.282211
vt 0.997921 0.234612
vt 0.699612 0.234612
vt 0.991792 0.234612
vt 0.695453 0.234612
vt 0.991792 0.282211
vt 0.695453 0.282211
vt 0.568953 0.229817
vt 0.987633 0.229817
vt 0.568953 0.234612
vt 0.987633 0.234612
vt 0.568953 0.282211
vt 0.987633 0.282211
vt 0.568953 0.287006
vt 0.987633 0.287006
vt 0.826112 0.287006
vt 0.981504 0.287006
vt 0.826112 0.282211
vt 0.981504 0.282211
vt 0.826112 0.234612
vt 0.981504 0.234612
vt 0.826112 0.229817
vt 0.981504 0.229817
vt 0.588589 0.229817
vt 0.489131 0.591520
vt 0.525728 0.576091
vt 0.588589 0.234612
vt 0.541157 0.580249
vt 0.525728 0.571297
vt 0.583060 0.234612
vt 0.479443 0.523697
vt 0.546686 0.580249
vt 0.583060 0.229817
vt 0.494660 0.591520
vt 0.479443 0.518903
vt 0.583060 0.287006
vt 0.556374 0.570660
vt 0.479443 0.576091
vt 0.583060 0.282211
vt 0.479443 0.571297
vt 0.515829 0.587254
vt 0.588589 0.282211
vt 0.525728 0.523697
vt 0.510300 0.587254
vt 0.588589 0.287006
vt 0.550844 0.570660
vt 0.525728 0.518903
vt 0.812006 0.229817
vt 0.812006 0.234612
vt 0.806476 0.234612
vt 0.806476 0.229817
vt 0.806476 0.287006
vt 0.806476 0.282211
vt 0.812006 0.282211
vt 0.812006 0.287006
vt 0.452401 0.234612
vt 0.510300 0.523697
vt 0.568953 0.587254
vt 0.452401 0.229818
vt 0.479443 0.580250
vt 0.510300 0.518903
vt 0.457930 0.229818
vt 0.494872 0.576091
vt 0.484972 0.580250
vt 0.457930 0.234612
vt 0.494872 0.571297
vt 0.574482 0.587254
vt 0.457930 0.282211
vt 0.504348 0.580249
vt 0.494872 0.523697
vt 0.457930 0.287006
vt 0.584170 0.581931
vt 0.494872 0.518903
vt 0.452401 0.287006
vt 0.510300 0.576091
vt 0.578640 0.581931
vt 0.452401 0.282211
vt 0.498818 0.580249
vt 0.510300 0.571297
vt 0.849907 0.282211
vt 0.849907 0.287006
vt 0.844378 0.287006
vt 0.844378 0.282211
vt 0.849907 0.229817
vt 0.849907 0.234612
vt 0.844378 0.234612
vt 0.844378 0.229817
s 0
f 76/181/7 115/265/7 54/134/7 20/48/7
f 51/127/8 19/45/8 24/60/8 49/124/8
f 70/169/9 105/239/9 112/260/9 71/171/9
f 116/266/7 75/179/7 74/177/7 119/269/7
f 77/183/10 80/189/10 79/187/10 78/185/10
f 94/222/9 83/195/9 82/193/9 91/213/9
f 69/167/9 23/57/9 56/137/9 106/242/9
f 80/190/9 95/225/9 90/210/9 79/188/9
f 17/39/7 53/131/7 120/270/7 73/175/7
f 102/236/7 77/184/7 78/186/7 99/233/7
f 93/219/9 49/123/9 24/61/9 84/197/9
f 53/132/11 17/40/11 22/54/11 55/136/11
f 94/222/9 91/213/9 90/210/9 95/225/9
f 104/238/7 85/199/7 19/46/7 51/128/7
f 86/201/7 103/237/7 98/232/7 87/203/7
f 50/126/9 92/216/9 81/191/9 21/51/9
f 52/130/7 18/42/7 88/205/7 97/231/7
f 18/43/11 52/129/11 50/125/11 21/52/11
f 108/248/9 67/163/9 68/165/9 109/251/9
f 22/55/9 72/173/9 111/257/9 55/135/9
f 20/49/8 54/133/8 56/138/8 23/58/8
f 66/161/7 113/263/7 118/268/7 65/159/7
f 102/236/7 99/233/7 98/232/7 103/237/7
f 16/38/9 107/245/9 106/242/9 56/137/9
f 49/123/9 93/219/9 96/228/9 13/29/9
f 11/21/11 14/30/11 50/125/11 52/129/11
f 52/130/7 97/231/7 100/234/7 11/23/7
f 51/127/8 49/124/8 13/27/8 12/24/8
f 104/238/7 51/128/7 12/26/7 101/235/7
f 92/216/9 50/126/9 14/32/9 89/207/9
f 63/155/9 62/153/9 61/149/9 64/156/9
f 9/17/7 117/267/7 120/270/7 53/131/7
f 110/254/9 15/35/9 55/135/9 111/257/9
f 108/248/9 109/251/9 112/260/9 105/239/9
f 10/18/8 16/36/8 56/138/8 54/133/8
f 114/264/7 10/20/7 54/134/7 115/265/7
f 116/266/7 119/269/7 118/268/7 113/263/7
f 53/132/11 55/136/11 15/33/11 9/15/11
f 9/16/12 15/34/12 68/166/12 65/160/12
f 16/37/12 10/19/12 66/162/12 67/164/12
f 12/25/10 13/28/10 80/189/10 77/183/10
f 14/31/10 11/22/10 78/185/10 79/187/10
f 98/232/7 99/233/7 100/234/7 97/231/7
f 102/236/7 103/237/7 104/238/7 101/235/7
f 32/82/12 29/74/12 43/108/12 44/111/12
f 26/67/10 35/89/10 58/142/10 63/154/10
f 118/268/7 119/269/7 120/270/7 117/267/7
f 114/264/7 115/265/7 116/266/7 113/263/7
f 59/144/12 34/86/12 28/71/12 62/152/12
f 33/84/12 34/86/12 59/144/12 60/146/12
f 79/188/9 90/210/9 89/207/9 14/32/9
f 93/219/9 84/197/9 83/195/9 94/222/9
f 81/191/9 92/216/9 91/213/9 82/193/9
f 13/29/9 96/228/9 95/225/9 80/190/9
f 99/233/7 78/186/7 11/23/7 100/234/7
f 85/199/7 104/238/7 103/237/7 86/201/7
f 97/231/7 88/205/7 87/203/7 98/232/7
f 101/235/7 12/26/7 77/184/7 102/236/7
f 65/159/7 118/268/7 117/267/7 9/17/7
f 119/269/7 74/177/7 73/175/7 120/270/7
f 75/179/7 116/266/7 115/265/7 76/181/7
f 113/263/7 66/161/7 10/20/7 114/264/7
f 109/251/9 68/165/9 15/35/9 110/254/9
f 71/171/9 112/260/9 111/257/9 72/173/9
f 105/239/9 70/169/9 69/167/9 106/242/9
f 67/163/9 108/248/9 107/245/9 16/38/9
f 65/160/12 68/166/12 67/164/12 66/162/12
f 59/145/9 58/143/9 57/139/9 60/147/9
f 47/118/9 46/115/9 45/114/9 48/122/9
f 43/109/9 42/105/9 41/104/9 44/112/9
f 35/89/10 36/92/10 57/140/10 58/142/10
f 29/73/11 30/76/11 42/106/11 43/110/11
f 36/91/8 33/83/8 60/148/8 57/141/8
f 30/75/10 31/79/10 41/103/10 42/107/10
f 25/64/10 26/67/10 63/154/10 64/157/10
f 35/88/7 26/65/7 28/70/7 34/85/7
f 32/80/7 38/95/7 40/100/7 31/77/7
f 40/102/10 37/94/10 47/119/10 48/121/10
f 28/71/12 27/69/12 61/150/12 62/152/12
f 37/93/8 39/99/8 46/116/8 47/120/8
f 27/68/11 25/63/11 64/158/11 61/151/11
f 39/98/12 38/97/12 45/113/12 46/117/12
f 107/246/12 108/249/12 38/97/12 39/98/12
f 106/243/8 107/247/8 39/99/8 37/93/8
f 105/240/10 106/244/10 37/94/10 40/102/10
f 108/250/11 105/241/11 40/101/11 38/96/11
f 96/229/8 93/220/8 33/83/8 36/91/8
f 95/226/10 96/230/10 36/92/10 35/89/10
f 93/221/12 94/223/12 34/86/12 33/84/12
f 94/224/11 95/227/11 35/90/11 34/87/11
f 112/261/8 109/252/8 32/81/8 31/78/8
f 111/258/10 112/262/10 31/79/10 30/75/10
f 110/255/11 111/259/11 30/76/11 29/73/11
f 109/253/12 110/256/12 29/74/12 32/82/12
f 92/217/11 89/208/11 25/63/11 27/68/11
f 91/214/12 92/218/12 27/69/12 28/71/12
f 90/211/8 91/215/8 28/72/8 26/66/8
f 89/209/10 90/212/10 26/67/10 25/64/10
f 48/121/10 41/103/10 31/79/10 40/102/10
f 32/82/12 44/111/12 45/113/12 38/97/12
f 48/122/9 45/114/9 44/112/9 41/104/9
f 62/153/9 63/155/9 58/143/9 59/145/9
f 18/44/12 21/53/12 81/192/12 88/206/12
f 82/194/12 87/204/12 88/206/12 81/192/12
f 83/196/12 86/202/12 87/204/12 82/194/12
f 84/198/12 85/200/12 86/202/12 83/196/12
f 19/47/12 85/200/12 84/198/12 24/62/12
f 20/50/10 23/59/10 69/168/10 76/182/10
f 76/182/10 69/168/10 70/170/10 75/180/10
f 71/172/10 74/178/10 75/180/10 70/170/10
f 74/178/10 71/172/10 72/174/10 73/176/10
f 22/56/10 17/41/10 73/176/10 72/174/10
